<?xml version="1.0" encoding="utf-8"?>
<!-- Generator: Adobe Illustrator 19.2.1, SVG Export Plug-In . SVG Version: 6.00 Build 0)  -->
<svg version="1.1" id="layer" xmlns="http://www.w3.org/2000/svg" xmlns:xlink="http://www.w3.org/1999/xlink" x="0px" y="0px"
	 viewBox="0 0 652 652" style="enable-background:new 0 0 652 652;" xml:space="preserve">
<style type="text/css">
	.st0{fill:#E7131A;}
</style>
<path class="st0" d="M270.5,316.8c-1.4,0-1.9-1-1.9-2.4l33.8-144.6c0.5-2.4,2.4-2.4,2.9,0l31.4,144.6c0,1.4-0.5,2.4-1.9,2.4H270.5z
	 M331.9,71.1c-5.6,5.7-12.4,10.1-19.8,13.1c-1.9,0.5-2.4,1-2.9,2.9L240,378.2c-5.2,23.3-12.1,27.6-30.5,29c-1.3-0.1-2.3,0.9-2.4,2.1
	c0,0.1,0,0.2,0,0.3v5.3c-0.1,1.3,0.9,2.3,2.1,2.4c0.1,0,0.2,0,0.2,0h66.2c1.3,0.1,2.3-0.9,2.4-2.1c0-0.1,0-0.2,0-0.3v-5.4
	c0.1-1.3-0.9-2.3-2.1-2.4c-0.1,0-0.2,0-0.3,0c-24.7,0-27.1-7.3-22.3-27.6l11.6-49.8c0.3-1.4,1.5-2.4,2.9-2.4h69.2
	c1.4,0,2.6,1,2.9,2.4l12.9,60c2.9,12.9-1.9,16-18.4,17.4c-1.3-0.1-2.3,0.9-2.4,2.1c0,0.1,0,0.2,0,0.3v5.3c-0.1,1.3,0.9,2.3,2.1,2.4
	c0.1,0,0.2,0,0.3,0h97.3c1.3,0.1,2.3-0.9,2.4-2.1c0-0.1,0-0.2,0-0.3v-5.3c0.1-1.3-0.9-2.3-2.1-2.4c-0.1,0-0.2,0-0.3,0
	c-15-1.4-21.3-3.9-24.2-17.4L334.8,72.1C334.3,70.7,332.9,70.2,331.9,71.1"/>
<path d="M146.1,518.8c-6.2,0-11.5,4.7-18.1,13.8c-3.1,4.2-7,10.3-8.7,12.9c-1,1.3-1.8,1.1-1.2-0.3l4.6-11.8l16.5-45.3
	c0.8-1.9-5.8-4.1-7-1.9v0.2c-2.8,6-8.1,8-17.5,7.6c-9.4-0.3-28.3-5.5-42.6-5.5c-17.9,0-27.9,11-27.9,24c0,7.3,4.8,12,11.2,11.8
	c3,0.2,5.6-1.8,6.2-4.7c0.4-1.7-0.6-3.4-2.2-3.8c-0.6-0.2-1.2-0.1-1.8,0.1c-6.3,1.3-8.5-3.1-8.5-6.4c0-8.1,6.9-14.1,21.3-14.1
	c3.7,0,10.9,0.9,18.6,1.7c-9.7,29.2-19.5,56.3-21.9,62.7c-0.5,1.8-1.8,3.2-3.5,3.7c-3.5,1.1-4.6,1.2-6.8,1.7
	c-3.3,0.8-2.7,3.5-0.4,3.4c4.1-0.2,9.5-0.8,13.7-0.8c5.2,0,14.5,0.4,15.9,0.5c2.6,0.2,2.9-2.9,0.8-3.3c-1.5-0.2-4-0.6-6.4-1
	c-2.8-0.3-3.7-1.5-3.1-3.8c1.4-3.8,18.1-52,21.4-62.1c5.2,0.6,9.6,1.1,12.5,1.3c6,0.4,11.8,0,16.8-3.6l-13.2,37.3l-11.6,31.9
	c-2,5.2,5.4,5.6,7.1,2.4c5.6-11.2,12.2-21.9,19.7-32c4.8-7,9.3-11.2,12.4-11.2c2.4,0,3.8,1.3,3.8,4.3c0,3.9-1.8,10-5.6,20.4
	c-4.9,13.5-6.8,17.1-8.4,17.2c-1.6,0.1-4.8-3.9-6.5-4.4c-1.7-0.5-3.5,0.3-4.3,1.9c-0.9,1.5-0.3,6.4,7.1,6.8
	c8.8,0.4,16.4-8.6,21.6-23.1c3.6-9.8,4.5-14.9,4.5-18.4C154.7,522,151.4,518.8,146.1,518.8z M295.9,565.6c-5.6-1.3-7.8-3.4-7.8-5.6
	l0.2-4.6c0-3.4,2.6-53,3.2-60.4c0.4-5.5-5.8-5.2-8.4-2l-5.2,6.6c-6.4,8-32,41-44.4,56.5c-3.5,4.3-8.1,7.5-13.4,9.3
	c-2.1,0.5-1.9,2.7,0.4,2.7c1.8,0,7.3-0.6,11.3-0.6c4,0,11.5,0.3,13.3,0.4c1.9,0.1,2.6-2,0-2.6c-5.2-1.5-7.8-2.6-7.8-3.9
	c0-1.3,1.2-3.2,4-7.1c2.2-3.1,7.4-9.9,13.2-17.6h24.9c-0.5,10.5-1.2,21.5-1.3,23.7c0,1.4-1,2.7-2.4,2.9l-5.6,1.6
	c-1.5,0.4-2.2,3.3,0.2,3.2c5.5-0.3,10-0.8,12.4-0.8c3.6,0,9.7,0.8,12.5,0.9C298.4,568.4,298,566.1,295.9,565.6z M280.4,525.5
	c0,2-0.2,4.1-0.3,6.4h-21.3c9.9-13.1,20.4-26.9,21.3-28.2c0.9-1.3,1.7-0.6,1.6,0.3C281.3,509,280.7,517.8,280.4,525.5L280.4,525.5z
	 M186.7,519.5c-9.5-0.4-20.1,10.6-25.1,27.2c-4.9,16,0.5,22.7,6.5,22.7c4.4,0,11.7-5.7,15.7-12.2c1.4-2.3,0.3-4.7-1.8-2.3
	c-2.7,2.9-6.4,6.1-10.3,5.4c-2.6-0.4-5-4.9-1.2-16c9.2-0.4,19.9-5.7,22.7-14.3C195.5,522.4,190.6,519.6,186.7,519.5z M187.7,527.6
	c-2.3,6.8-10.3,12.4-16.1,13.8c5.6-14.7,10.9-18.7,14.3-18.6C187.7,522.9,188.5,525,187.7,527.6z M327.2,525h8.8c2,0,2.9-0.5,3.4-2
	c0.8-1.9,0.3-2.7-1.6-2.7h-8.8l4.3-11.3c0.5-1.5,0-2.3-0.9-2.3h-4.6c-1.2,0-1.6,0.3-2.2,1.9l-4.6,11.8h-7c-1,0-1.8-0.2-2.4,2.7
	c-0.2,1.4,0,2,1.4,2h6.2l-10.6,27.6c-1.7,4-3.1,8-4.4,12.1c-0.6,3.8,1.7,5.4,4.5,4.8c5.6-1,13.5-6.8,20.7-15.8
	c2-2.6,0.3-4.2-1.6-2.2c-3,2.9-6.1,5.7-9.5,8.2c-2.8,1.9-4.2,0.5-3.3-2.2L327.2,525z M425.6,522.4c0.6-1.5-1.5-2-6.5-2.9
	c-1.5-0.3-2.4,1.3-5,6.8c-2.2-2.7-5.6-4.1-9.1-3.7c-8,0.2-17.8,7.4-25.9,18.4c-6.4,8.8-8.4,15-7.2,21.5c0.7,3.8,4.1,6.6,8,6.5
	c6,0.2,12-5.5,18.1-11.7l3.8-3.8c1.1-1.1,2.1-0.4,1.4,0.9c-2,3.4-3.6,7-4.9,10.8c-0.8,3.8,1.3,4.8,4.2,4.4c5.7-0.8,14.5-6,21.3-15.4
	c1.9-2.7,0-4.3-1.8-2.2c-3,3.1-6.2,6-9.7,8.5c-2.9,2-4.3,1.4-3.4-0.9C409.5,558.2,411.1,554.2,425.6,522.4z M400.4,550.9
	c-6.9,6.3-12.4,10.9-16.3,10.9c-2.6,0-3.8-1.1-4-2.9c-0.6-4.8,3.7-12.1,7.3-17c6.2-8.2,13.9-15,18.8-15c3.4,0,5.2,1.4,5.5,3.5
	c0.6,3.8-5.7,15.3-11.2,20.4L400.4,550.9z M552,518c-5.4,0-12.5,3.8-19.3,11.3c-2.2,2.6-0.5,4.3,1.5,2.4c2.3-2.1,4.8-4,7.4-5.7
	c2.3-1.4,3.8-0.3,3.2,1.7c-0.5,1.7-2.2,5.7-3.4,8.4l-7.4,17c-2.1,4.8-4,9.6-4.5,10.9c-1,3.4,0.8,5.2,3.5,5.2
	c5.2,0,12.3-4.3,19.2-11.9c2.2-2.6,0.5-4.2-1.5-2.4c-2.5,2.3-5.2,4.3-8.1,6.2c-2.3,1.4-3.9,0.3-3.2-1.8c0.5-1.5,2.2-5,3.3-7.5
	l7.5-17c2.2-5,4.7-10.3,5.2-11.8C556.2,519.8,554.6,518,552,518z M558.5,491.6c-3.3-0.2-6.2,2.2-6.5,5.6c-0.5,2.9,1.4,5.8,4.4,6.3
	c0.1,0,0.3,0,0.4,0.1c3.2,0.1,6-2.3,6.4-5.5c0.6-2.9-1.3-5.8-4.2-6.4C558.9,491.6,558.7,491.6,558.5,491.6L558.5,491.6z
	 M588.8,519.6c-9.6-0.4-19.9,10.7-24.9,27.1c-5,16.4,0.4,22.7,6.8,22.7c4.4,0,11.7-5.2,16-12.2c1.4-2.3,0.3-4.7-1.9-2.3
	c-2.7,2.9-6.2,5.7-9.8,5.5s-6.1-5.2-2-17.1c6.1-17.2,10.3-19.2,12.2-19.3c1.9-0.1,5.7,4.8,8,5.4c1.7,0.5,3.5-0.3,4.2-1.8
	C598.5,525.5,597.8,520.1,588.8,519.6L588.8,519.6z M526.8,520.4h-8.8l4.2-11.3c0.6-1.5,0-2.3-0.9-2.3h-4.6c-1.2,0-1.6,0.3-2.2,1.9
	l-4.5,11.8H503c-1,0-1.7-0.2-2.4,2.7c-0.2,1.4,0.1,2,1.4,2h6.2l-10.6,27.6c-1.7,3.9-3.1,8-4.4,12.1c-0.7,3.8,1.6,5.4,4.5,4.8
	c5.6-1,13.5-6.8,20.7-15.8c2-2.6,0.3-4.2-1.7-2.2c-3,2.9-6.2,5.7-9.5,8.2c-2.8,1.9-4.3,0.5-3.3-2.2l12.2-32.6h8.8c2,0,2.9-0.5,3.4-2
	C529.2,521.3,528.7,520.4,526.8,520.4L526.8,520.4z M362.2,551.2c-3.1,3.1-6.4,6-9.8,8.6c-2.8,1.9-4.2,0.5-3.3-2.2l26.6-70.5
	c0.4-1.1,0.2-2.6-1.3-2.6c-5.2,0.3-10.4,0.9-15.5,1.8c-0.9,0.2-1.3,1.5-0.3,1.8l5.9,2.2c1.2,0.4,1.3,1,0.5,2.9l-22.9,59.4
	c-1.7,3.9-3.1,8-4.4,12.1c-0.6,3.8,1.6,5.4,4.5,4.8c5.9-1,14.3-6.8,21.6-16.3C365.8,550.7,364.2,549.1,362.2,551.2z M474.5,551.4
	l6.4-12.9c3.5-7.1,4.2-10.3,4.2-12.8c0-4.7-2.4-7.1-7.3-7.1c-6.9,0-12.3,5.5-20.7,17.2c-2.3,3.2-3.8,5.6-6.9,9.5
	c-1,1.2-1.7,1.1-1.2-0.3l4.2-10.6c1.7-3.7,2.9-7.6,3.5-11.6c0-2.8-1.2-4.1-4.2-4.1c-3.7,0-8.4,2-16.6,12.3c-2.9,3.8,0,4.2,1,3.1
	c1.6-1.7,5.2-5.4,7.5-7.4s4.5-1.4,3.6,1.1c-0.6,2-1.3,3.9-2.1,5.8L433,565.3c-1.8,4.4,6.5,5.4,8,2.1c4.5-10.3,14.3-23.3,18.3-29
	c5.9-8.4,11-14.2,14.7-14.2c2,0,2.8,1.1,2.8,3.2c-0.2,1.8-0.7,3.6-1.5,5.2l-9.2,19.5c-2.6,5.2-5,10.7-5.5,12.1
	c-1.1,3.4,0.8,5.2,3.7,5.2c5.2,0,12.3-4.3,19.2-11.9c2.2-2.6,0.5-4.2-1.5-2.4c-2.5,2.3-5.2,4.3-8.1,6.2c-2.4,1.5-4,0.3-3.3-1.9
	C471.4,557.8,473.3,553.8,474.5,551.4L474.5,551.4z"/>
</svg>
